<?xml version="1.0" encoding="UTF-8"?>
<svg version="1.1" viewBox="0 0 100 100" xmlns="http://www.w3.org/2000/svg" xmlns:xlink="http://www.w3.org/1999/xlink">
    <!--Generated by IJSVG (https://github.com/iconjar/IJSVG)-->
    <defs>
        <path d="M32.9696,15.4254c4.08449,4.08449 4.08449,10.7068 0,14.7913c-4.08449,4.08449 -10.7068,4.08449 -14.7913,3.55271e-15c-4.08449,-4.08449 -4.08449,-10.7068 -3.55271e-15,-14.7913c4.08449,-4.08449 10.7068,-4.08449 14.7913,-3.55271e-15" id="b"></path>
        <path d="M50.5069,43.0471c1.78548,1.78548 1.78548,4.68031 0,6.46578c-1.78548,1.78548 -4.68031,1.78548 -6.46578,0c-1.78548,-1.78548 -1.78548,-4.68031 0,-6.46578c1.78548,-1.78548 4.68031,-1.78548 6.46578,0" id="e"></path>
        <path d="M89.5637,42.4283c5.9551,5.9551 5.9551,15.6102 0,21.5653c-5.9551,5.9551 -15.6102,5.9551 -21.5653,0c-5.9551,-5.9551 -5.9551,-15.6102 0,-21.5653c5.9551,-5.9551 15.6102,-5.9551 21.5653,0" id="d"></path>
        <path d="M74.1836,9.75762c5.38182,5.37283 5.38182,14.0839 0,19.4568c-5.38182,5.37283 -14.1075,5.37283 -19.4893,0c-5.38182,-5.37283 -5.38182,-14.0839 0,-19.4568c5.38182,-5.37283 14.1075,-5.37283 19.4893,0" id="a"></path>
        <path d="M26.8913,45.6957c4.78627,4.78627 4.78627,12.5463 0,17.3326c-4.78627,4.78627 -12.5463,4.78627 -17.3326,0c-4.78627,-4.78627 -4.78627,-12.5463 0,-17.3326c4.78627,-4.78627 12.5463,-4.78627 17.3326,0" id="c"></path>
    </defs>
    <path d="M76.8473,21.4167c15.621,15.621 15.621,40.9476 0,56.5685c-15.621,15.621 -40.9476,15.621 -56.5685,0c-15.621,-15.621 -15.621,-40.9476 -7.10543e-15,-56.5685c15.621,-15.621 40.9476,-15.621 56.5685,-7.10543e-15" stroke-width="1" fill="#E8F4FA" stroke="#DAEDF7"></path>
    <use fill="#FFE500" xlink:href="#a"></use>
    <path d="M64.439,5.728l5.43267e-07,1.12017e-09c-7.59556,-0.0156614 -13.7657,6.12906 -13.7813,13.7246c-0.00754944,3.66136 1.44517,7.17459 4.03633,9.76139l19.49,-19.456l6.57936e-07,6.58345e-07c-2.58357,-2.58518 -6.09014,-4.03531 -9.745,-4.03Z" fill="#FFF48C"></path>
    <use fill="none" stroke="#45413C" stroke-linejoin="round" stroke-width="0.79" xlink:href="#a"></use>
    <g stroke-width="0.79" stroke="#EBCB00" fill="none" stroke-linejoin="round">
        <path d="M72.5064,11.4321c4.45549,4.44807 4.45549,11.6598 0,16.1079c-4.45549,4.44807 -11.6793,4.44807 -16.1348,3.55271e-15c-4.45549,-4.44807 -4.45549,-11.6598 -7.10543e-15,-16.1079c4.45549,-4.44807 11.6793,-4.44807 16.1348,-3.55271e-15"></path>
        <path fill="#FFF" stroke="#B58B00" d="M65.951,29.8h-6.11959e-08c-0.773199,-3.37976e-08 -1.4,-0.626801 -1.4,-1.4c0,0 0,-7.10543e-15 0,-7.10543e-15v-0.834h-0.941v0.834v-6.02098e-08c0,0.773199 -0.626801,1.4 -1.4,1.4c-0.773199,0 -1.4,-0.626801 -1.4,-1.4v-0.834h-0.836h-6.11959e-08c-0.773199,-3.37976e-08 -1.4,-0.626801 -1.4,-1.4v-13.372l1.42109e-14,2.11394e-07c-1.1675e-07,-0.773199 0.626801,-1.4 1.4,-1.4h0.836v-0.834l1.42109e-14,-1.51184e-07c1.1675e-07,-0.773199 0.626802,-1.4 1.4,-1.4c0.773199,1.1675e-07 1.4,0.626801 1.4,1.4v0.84h0.943v-0.834l1.42109e-14,-1.51184e-07c1.1675e-07,-0.773199 0.626802,-1.4 1.4,-1.4c0.773199,1.1675e-07 1.4,0.626801 1.4,1.4v0.947l7.64125e-08,1.65432e-08c2.55532,0.553221 4.17833,3.07319 3.62511,5.6285c-0.19224,0.887952 -0.635931,1.70183 -1.27811,2.3445l8.10173e-08,8.10584e-08c1.84827,1.84921 1.84751,4.84661 -0.00169819,6.69489c-0.644546,0.644219 -1.46133,1.08871 -2.3523,1.28011v0.947l2.65701e-08,-4.65612e-06c-0.00438202,0.768126 -0.626861,1.38927 -1.395,1.392Zm0.389,-5.023h-3.22945e-08c1.07696,4.70752e-08 1.95,-0.873045 1.95,-1.95c4.70752e-08,-1.07696 -0.873045,-1.95 -1.95,-1.95c-3.22361e-08,0 -7.25313e-08,0 -1.04767e-07,0h-4.964v3.9Zm0,-6.692h-8.52372e-08c1.07696,4.70752e-08 1.95,-0.873045 1.95,-1.95c4.70752e-08,-1.07696 -0.873045,-1.95 -1.95,-1.95h-4.964v3.9Z"></path>
    </g>
    <use fill="#FFE500" xlink:href="#b"></use>
    <path d="M18.178,30.217l-2.05233e-07,-2.09189e-07c-4.04571,-4.12369 -3.98249,-10.7463 0.141195,-14.792c4.06813,-3.9912 10.5827,-3.9912 14.6508,4.10466e-07Z" fill="#FFF48C"></path>
    <use fill="none" stroke="#45413C" stroke-linecap="round" stroke-linejoin="round" stroke-width="1" xlink:href="#b"></use>
    <g stroke-linecap="round" stroke-width="1" stroke="#EBCB00" fill="none" stroke-linejoin="round">
        <path d="M31.6947,16.7003c3.38038,3.38038 3.38038,8.86105 0,12.2414c-3.38038,3.38038 -8.86105,3.38038 -12.2414,0c-3.38038,-3.38038 -3.38038,-8.86105 0,-12.2414c3.38038,-3.38038 8.86105,-3.38038 12.2414,0"></path>
        <path fill="#FFF" stroke="#B58B00" d="M25.732,18.347l-3.08395e-08,9.98654e-08c-0.219884,0.712036 -0.0775943,1.4866 0.381,2.074l-0.453,0.728l-9.62489e-09,1.54586e-08c-0.33589,0.539474 -0.926504,0.867299 -1.562,0.867h-0.5l4.66735e-08,1.06788e-07c-0.468255,-1.07136 -1.66422,-1.62272 -2.783,-1.283l7.17633e-08,-2.1279e-08c-0.748335,0.221893 -1.3291,0.814381 -1.536,1.567l5.1273e-08,-1.72448e-07c-0.362016,1.21758 0.331553,2.49809 1.54913,2.8601c1.12114,0.333344 2.31392,-0.227831 2.77187,-1.3041h0.317l-3.51396e-08,-1.47828e-11c0.700388,0.000294615 1.33994,0.397981 1.65,1.026l0.333,0.678l-5.01297e-08,9.28618e-08c-0.304204,0.563517 -0.350493,1.23088 -0.127,1.831l-3.22377e-08,-8.79215e-08c0.437289,1.19261 1.75859,1.80492 2.9512,1.36763c0.890897,-0.326661 1.48974,-1.16691 1.5078,-2.11563l9.75183e-08,3.63978e-06c-0.0160498,-0.599061 -0.277444,-1.16524 -0.722997,-1.566l5.65162e-08,6.93391e-08c-0.513476,-0.629979 -1.34961,-0.898765 -2.134,-0.686l-0.239,-0.486l-1.10122e-07,-2.23309e-07c-0.281191,-0.57021 -0.247913,-1.24521 0.0880002,-1.785l0.507,-0.814c0.067,0.006 0.132,0.02 0.2,0.02l-4.83677e-08,5.28075e-11c1.27025,-0.00138686 2.29887,-1.03226 2.29749,-2.30251c-0.00138686,-1.27025 -1.03226,-2.29887 -2.30251,-2.29749c-1.00778,0.00110028 -1.89746,0.658137 -2.19498,1.621Z"></path>
    </g>
    <use fill="#FFE500" xlink:href="#c"></use>
    <path d="M9.559,63.028l-2.5876e-07,-2.50003e-07c-4.86792,-4.70319 -5.00147,-12.4621 -0.298279,-17.33c4.70319,-4.86792 12.4621,-5.00147 17.33,-0.298279c0.101809,0.0983633 0.201905,0.198483 0.300245,0.300315Z" fill="#FFF48C"></path>
    <use fill="none" stroke="#45413C" stroke-linecap="round" stroke-linejoin="round" stroke-width="1" xlink:href="#c"></use>
    <g stroke-linecap="round" stroke-width="1" stroke="#EBCB00" fill="none" stroke-linejoin="round">
        <path d="M25.3965,47.1905c3.9607,3.9607 3.9607,10.3823 0,14.343c-3.9607,3.9607 -10.3823,3.9607 -14.343,0c-3.9607,-3.9607 -3.9607,-10.3823 -3.55271e-15,-14.343c3.9607,-3.9607 10.3823,-3.9607 14.343,0"></path>
        <path fill="#FFF" stroke="#B58B00" d="M16.748,58.059l1.104,-4.995l3.28,-1.087v-1.928l-2.82,0.934l1.089,-4.924h-3.436l-1.36,6.153l-3.151,1.045v1.928l2.691,-0.892l-1.33,6.02h10.796l0.59,-2.254h-7.453Z"></path>
    </g>
    <use fill="#FFE500" xlink:href="#d"></use>
    <path d="M68,63.994l1.22874e-06,1.21485e-06c-5.98885,-5.92117 -6.04372,-15.5761 -0.122559,-21.565c5.92117,-5.98885 15.5761,-6.04372 21.565,-0.122559c0.0407488,0.0402882 0.0812702,0.0808059 0.121562,0.121551Z" fill="#FFF48C"></path>
    <use fill="none" stroke="#45413C" stroke-linecap="round" stroke-linejoin="round" stroke-width="1" xlink:href="#d"></use>
    <g stroke-linecap="round" stroke-width="1" stroke="#EBCB00" fill="none" stroke-linejoin="round">
        <path d="M87.7047,44.2873c4.92842,4.92842 4.92842,12.919 0,17.8474c-4.92842,4.92842 -12.919,4.92842 -17.8474,0c-4.92842,-4.92842 -4.92842,-12.919 0,-17.8474c4.92842,-4.92842 12.919,-4.92842 17.8474,0"></path>
        <path fill="#FFF" stroke="#B58B00" d="M78.781,64.965l-7.033,-9.999l7.033,3.854l7.032,-3.854l-7.032,9.999Z"></path>
        <path fill="#FFF" stroke="#B58B00" d="M78.781,55.314l-7.033,-3.853l7.033,-9.999l7.032,9.999l-7.032,3.853Z"></path>
        <path stroke="#B58B00" d="M78.78,58.82v6.14"></path>
        <path stroke="#B58B00" d="M78.78,55.31v-13.85"></path>
        <path stroke="#B58B00" d="M71.748,51.461l7.033,-2.481l7.032,2.481"></path>
        <path fill="#FFAA54" stroke="#45413C" d="M51.049,73.957h-7.546l8.09227e-07,-1.77749e-06c-1.13314,2.48897 -1.77424,5.17359 -1.888,7.906c0,2.986 3.225,9.128 4.805,11.957l8.38444e-08,1.24415e-07c0.316361,0.469442 0.95338,0.593539 1.42282,0.277178c0.109364,-0.0737011 0.203477,-0.167814 0.277178,-0.277178c1.581,-2.828 4.81,-8.969 4.81,-11.954l5.36887e-07,1.3199e-05c-0.111165,-2.73296 -0.749895,-5.41861 -1.881,-7.909Z"></path>
        <path fill="#FFE500" stroke="#45413C" d="M48.219,73.956c0,0 2.355,5.269 -0.1,9.193l2.82102e-08,-3.7187e-08c-0.353816,0.466404 -1.01874,0.557676 -1.48514,0.20386c-0.0769204,-0.058352 -0.145508,-0.12694 -0.20386,-0.20386c-2.455,-3.926 -0.1,-9.193 -0.1,-9.193Z"></path>
        <path fill="#FFF" stroke="#45413C" d="M57.59,47.739l-1.94806e-08,1.86612e-07c0.407336,-3.90203 -0.865409,-7.79299 -3.5,-10.7l-4.26,-4.69l-4.16008e-08,-4.58293e-08c-1.28139,-1.41164 -3.46453,-1.51723 -4.87617,-0.235834c-0.0823654,0.0747658 -0.161069,0.153469 -0.235834,0.235834l-4.255,4.692l-5.06507e-08,5.58337e-08c-2.6364,2.90617 -3.91099,6.79723 -3.505,10.7l2.722,26.214h15.188Z"></path>
        <path fill="#FF6242" stroke="#45413C" d="M39.68,73.955l-5.553,6.03c0,0 -7.227,-10.555 4.434,-16.811Z"></path>
        <path fill="#FF6242" stroke="#45413C" d="M54.868,73.955l5.553,6.03c0,0 7.227,-10.555 -4.433,-16.811Z"></path>
        <path fill="#FF6242" stroke="#45413C" d="M38.865,66.101l0.815,7.854h15.188l0.816,-7.854h-16.819Z"></path>
    </g>
    <use fill="#00B8F0" xlink:href="#e"></use>
    <path d="M44.041,49.513l1.75961e-08,1.75961e-08c-1.78554,-1.78554 -1.78554,-4.68046 3.85531e-08,-6.466c1.78554,-1.78554 4.68046,-1.78554 6.466,3.85531e-08Z" fill="#4ACFFF"></path>
    <use fill="none" stroke="#45413C" stroke-linecap="round" stroke-linejoin="round" stroke-width="1" xlink:href="#e"></use>
    <path d="M47.27,63.17v16.82" stroke-linecap="round" stroke-width="1" stroke="#45413C" fill="none" stroke-linejoin="round"></path>
</svg>