<?xml version="1.0" encoding="UTF-8"?>
<svg version="1.1" viewBox="0 0 64 64" xmlns="http://www.w3.org/2000/svg" xmlns:xlink="http://www.w3.org/1999/xlink">
    <!--Generated by IJSVG (https://github.com/iconjar/IJSVG)-->
    <path d="M49.3865,49.3994c-1.807,1.8078 -4.06,2.6208 -7.9261,2.6214h-18.9037c-3.8662,-0.0006 -6.1189,-0.8136 -7.926,-2.6214c-1.8071,-1.8078 -2.62,-4.063 -2.62,-7.9334v-18.8873c0,-3.87 0.8128,-6.1251 2.62,-7.9333c1.8072,-1.8082 4.0614,-2.6213 7.93,-2.6213c0,0 14.3451,-0.0032 15.45,-0.0032l-8.74228e-08,1.77636e-15c1.10457,-4.82823e-08 2,0.89543 2,2l1.13687e-13,1.50996e-06c8.33927e-07,5.52285 4.47715,10 10,10l-8.74228e-08,3.55271e-15c1.10457,-4.82823e-08 2,0.89543 2,2c0,1.1046 -0.0036,15.4452 -0.0036,15.4452c-0.00030151,3.8703 -0.813102,6.1249 -2.6206,7.9333Zm0.6235,-27.3776l-3.46638e-07,-3.03402e-11c-4.41828,-0.000386791 -7.99969,-3.58242 -7.9993,-8.0007c0.000386791,-4.41828 3.58242,-7.99969 8.0007,-7.9993c4.418,0.000386767 7.9993,3.582 7.9993,8l7.10543e-15,-3.16013e-07c0,4.41828 -3.58172,8 -8,8c-0.000233228,0 -0.000466456,-1.01991e-08 -0.000699684,-3.05974e-08Z" fill="#000" fill-rule="evenodd"></path>
</svg>